<svg xmlns="http://www.w3.org/2000/svg" viewBox="0 0 246.25 51.84"><defs><linearGradient id="a" x1="3.05" y1="42.69" x2="45.48" y2=".26" gradientUnits="userSpaceOnUse"><stop offset="0" stop-color="#227fc8"></stop><stop offset=".23" stop-color="#2c9fc6"></stop><stop offset=".57" stop-color="#38c8c4"></stop><stop offset=".84" stop-color="#3fe1c3"></stop><stop offset="1" stop-color="#42eac2"></stop></linearGradient></defs><path class="logo" fill="#0e1124" d="M65 36.41h-6.2V6.59a58 58 0 0 1 9.87-.83c6.76 0 12.19 1.34 12.19 9.64 0 8.06-4.89 9.8-11.86 9.8-1.33 0-2.88-.06-4-.14Zm0-16.22a29.33 29.33 0 0 0 3.75.17c3.88 0 6-1 6-5 0-3.45-1.44-4.82-5.92-4.82a30.1 30.1 0 0 0-3.88.26Zm17.75 4.62c0-8.41 2.65-11.9 10.41-11.9 8.46 0 10.21 4.44 10.21 11.46 0 .61 0 1.24-.08 1.86-2.65.48-7.79 1-11 1.16l-3.82.19c.21 3.62 2.14 4.51 5.49 4.51a66.27 66.27 0 0 0 8.36-.61l.48 4.36a58.72 58.72 0 0 1-10.15.89c-7.84 0-9.9-5.04-9.9-11.92Zm9.56-1.38c1.51-.08 3.85-.27 5.21-.45a7.34 7.34 0 0 0 0-.93c0-3.05-1.13-4.71-4.41-4.71-4.26 0-4.83 2.65-4.83 6.29Zm14.31 12.98V19.46c0-1.58.06-2.92.2-4.4a19.21 19.21 0 0 1 9.32-2.15 21.77 21.77 0 0 1 2.36.12l-.5 4.63a14.14 14.14 0 0 0-1.67-.09 9.48 9.48 0 0 0-3.85.72 31 31 0 0 0-.14 3.11v15Zm29.67-.57a30.67 30.67 0 0 1-7.59.89c-7.77 0-9-5.92-9-12.13 0-7.59 1.78-11.69 10.31-11.69a20.73 20.73 0 0 1 6.21.88l-.44 4.21a22.14 22.14 0 0 0-4.2-.53c-5.42 0-6 1.6-6 7.09 0 5.2.23 7.43 6 7.43a21.1 21.1 0 0 0 4.15-.55ZM138 24.81c0-8.41 2.65-11.9 10.41-11.9 8.46 0 10.21 4.44 10.21 11.46 0 .61 0 1.24-.08 1.86-2.65.48-7.79 1-11 1.16l-3.82.19c.21 3.62 2.14 4.51 5.49 4.51a66.27 66.27 0 0 0 8.36-.61l.48 4.36a58.72 58.72 0 0 1-10.15.89c-7.8 0-9.9-5.04-9.9-11.92Zm9.56-1.38c1.51-.08 3.85-.27 5.21-.45a7.34 7.34 0 0 0 .05-.93c0-3.05-1.13-4.71-4.41-4.71-4.26 0-4.83 2.65-4.83 6.29ZM167.63 45h-5.77V19.46a41.9 41.9 0 0 1 .2-4.4 19.23 19.23 0 0 1 9.33-2.15c7.73 0 11 2.8 11 11.91s-3.18 11.91-10.31 11.91a22.11 22.11 0 0 1-4.43-.5Zm3.26-12.79c5.53 0 5.67-3.13 5.67-7.35 0-3.79-.22-7.38-5.17-7.38a9.83 9.83 0 0 0-3.62.61 31 31 0 0 0-.14 3.12v10.45a11.87 11.87 0 0 0 3.26.51Zm22.46-25.54v6.55H198v4.39h-4.66v12c0 1.93.81 2.69 2.75 2.69.65 0 1.29 0 2-.08l.44 4.11a24.19 24.19 0 0 1-4 .41c-4.88 0-6.94-2.14-6.94-6.54V17.61h-3.79v-4.39h3.79V7.61ZM216 13.22h5.88L211.08 45h-5.89l3.65-10.17-9.33-21.57h6.14l5.8 14.31Zm23.4 0h6.21l-7.8 11.11 8.44 12.08h-6.76l-5.13-7.67-5.05 7.67H223l8.4-12-7.81-11.23h6.63l4.63 6.94Z"></path><path d="M12.2 15.5h6.09v15H12.2v-15Zm9.14 27.19-9.14 9.15V36.59h28.32a2.17 2.17 0 0 0 2.17-2.17V8.27a2.17 2.17 0 0 0-2.17-2.17H8.27A2.17 2.17 0 0 0 6.1 8.27v34.42a6.1 6.1 0 0 1-6.1-6.1V6.1A6.1 6.1 0 0 1 6.1 0h36.59a6.1 6.1 0 0 1 6.1 6.1v30.49a6.1 6.1 0 0 1-6.1 6.1Zm9.15-30.49h6.1v18.29h-6.1V12.2Zm-3 6.43v11.86h-6.1V18.63Z" fill-rule="evenodd" fill="url(#a)"></path></svg>